G04 #@! TF.FileFunction,Soldermask,Top*
%FSLAX46Y46*%
G04 Gerber Fmt 4.6, Leading zero omitted, Abs format (unit mm)*
G04 Created by KiCad (PCBNEW 4.0.7) date 01/02/18 22:23:31*
%MOMM*%
%LPD*%
G01*
G04 APERTURE LIST*
%ADD10C,0.100000*%
%ADD11R,1.065240X1.015240*%
%ADD12R,2.215240X1.065240*%
%ADD13R,0.315240X1.465240*%
%ADD14R,1.465240X0.315240*%
%ADD15R,1.215240X0.765240*%
%ADD16R,2.015240X0.815240*%
%ADD17R,1.965240X1.065240*%
%ADD18R,2.515240X0.515240*%
%ADD19R,1.115240X1.115240*%
%ADD20R,1.515240X1.315240*%
%ADD21R,1.315240X1.515240*%
%ADD22R,0.915240X0.815240*%
%ADD23R,1.765240X1.765240*%
%ADD24C,1.765240*%
%ADD25R,0.465240X1.395240*%
%ADD26R,1.490240X2.115240*%
%ADD27R,2.390240X1.915240*%
%ADD28R,1.190240X1.915240*%
%ADD29R,1.615240X1.815240*%
%ADD30R,1.575240X0.665240*%
%ADD31R,0.715240X0.305240*%
%ADD32R,0.305240X0.715240*%
%ADD33R,0.472440X1.539240*%
%ADD34R,1.015240X1.815240*%
%ADD35R,0.765240X1.215240*%
%ADD36R,0.915240X1.215240*%
%ADD37R,1.215240X0.915240*%
%ADD38R,1.715240X1.715240*%
%ADD39O,1.715240X1.715240*%
%ADD40R,0.865240X0.865240*%
G04 APERTURE END LIST*
D10*
D11*
X181675000Y-97100000D03*
D12*
X183200000Y-95625000D03*
X183200000Y-98575000D03*
D13*
X154593000Y-105180000D03*
X154093000Y-105180000D03*
X153593000Y-105180000D03*
X153093000Y-105180000D03*
X152593000Y-105180000D03*
X152093000Y-105180000D03*
X151593000Y-105180000D03*
X151093000Y-105180000D03*
X150593000Y-105180000D03*
X149593000Y-105180000D03*
X149093000Y-105180000D03*
D14*
X147643000Y-106630000D03*
X147643000Y-107130000D03*
X147643000Y-107630000D03*
X147643000Y-108130000D03*
X147643000Y-108630000D03*
X147643000Y-109130000D03*
X147643000Y-109630000D03*
X147643000Y-110130000D03*
X147643000Y-110630000D03*
X147643000Y-111130000D03*
X147643000Y-111630000D03*
X147643000Y-112130000D03*
D13*
X150093000Y-105180000D03*
X149093000Y-113550000D03*
X149593000Y-113580000D03*
X150093000Y-113580000D03*
X150593000Y-113580000D03*
X151093000Y-113580000D03*
X151593000Y-113580000D03*
X152093000Y-113580000D03*
X152593000Y-113580000D03*
X153093000Y-113580000D03*
X154093000Y-113580000D03*
X154593000Y-113580000D03*
X153593000Y-113580000D03*
D14*
X156043000Y-112130000D03*
X156043000Y-111630000D03*
X156043000Y-111130000D03*
X156043000Y-110630000D03*
X156043000Y-110130000D03*
X156043000Y-109630000D03*
X156043000Y-109130000D03*
X156043000Y-108630000D03*
X156043000Y-108130000D03*
X156043000Y-107630000D03*
X156043000Y-107130000D03*
X156043000Y-106630000D03*
D15*
X157750000Y-117100000D03*
X155850000Y-117100000D03*
D16*
X177686000Y-110045000D03*
X177686000Y-108945000D03*
X177686000Y-107845000D03*
X177686000Y-106745000D03*
X177686000Y-105645000D03*
X177686000Y-104545000D03*
X177686000Y-103445000D03*
X177686000Y-100445000D03*
X177686000Y-99345000D03*
X177686000Y-98245000D03*
X177686000Y-97145000D03*
X177686000Y-96045000D03*
X165886000Y-96045000D03*
X165886000Y-97145000D03*
X165886000Y-98245000D03*
X165886000Y-99345000D03*
X165886000Y-100445000D03*
X165886000Y-103445000D03*
X165886000Y-104545000D03*
X165886000Y-105645000D03*
X165886000Y-106745000D03*
X165886000Y-107845000D03*
X165886000Y-108945000D03*
X165886000Y-110045000D03*
D17*
X114600000Y-99700000D03*
X114600000Y-101700000D03*
X114600000Y-103700000D03*
X114600000Y-105700000D03*
X114600000Y-107700000D03*
X114600000Y-109700000D03*
X114600000Y-111700000D03*
X114600000Y-113700000D03*
X129400000Y-113700000D03*
X129400000Y-111700000D03*
X129400000Y-109700000D03*
X129400000Y-107700000D03*
X129400000Y-105700000D03*
X129400000Y-103700000D03*
X129400000Y-101700000D03*
X129400000Y-99700000D03*
D18*
X176089840Y-119357500D03*
X176089840Y-120357500D03*
D19*
X135700000Y-122300000D03*
X138500000Y-122300000D03*
D20*
X129650000Y-116400000D03*
X126950000Y-116400000D03*
X160550000Y-122300000D03*
X157850000Y-122300000D03*
D21*
X172600000Y-117450000D03*
X172600000Y-114750000D03*
D22*
X165200000Y-121950000D03*
X165200000Y-119850000D03*
D23*
X116300000Y-120200000D03*
D24*
X116300000Y-117700000D03*
D25*
X149437500Y-118940000D03*
X150087500Y-118940000D03*
X150737500Y-118940000D03*
X151387500Y-118940000D03*
X152037500Y-118940000D03*
D26*
X148275000Y-119300000D03*
X153200000Y-119300000D03*
D27*
X147827500Y-121600000D03*
X153647500Y-121600000D03*
D28*
X149897500Y-121600000D03*
X151577500Y-121600000D03*
D29*
X160443440Y-105100000D03*
X160443440Y-110500000D03*
D30*
X138350000Y-119550000D03*
X138350000Y-118600000D03*
X138350000Y-117650000D03*
X135650000Y-117650000D03*
X135650000Y-119550000D03*
X126850000Y-120450000D03*
X126850000Y-121400000D03*
X126850000Y-122350000D03*
X129550000Y-122350000D03*
X129550000Y-120450000D03*
D31*
X138063680Y-99291800D03*
X138063680Y-99791800D03*
X138063680Y-100291800D03*
X138063680Y-100791800D03*
X138063680Y-101291800D03*
X138063680Y-101791800D03*
D32*
X137438680Y-102416800D03*
X136938680Y-102416800D03*
X136438680Y-102416800D03*
X135938680Y-102416800D03*
X135438680Y-102416800D03*
X134938680Y-102416800D03*
D31*
X134313680Y-101791800D03*
X134313680Y-101291800D03*
X134313680Y-100791800D03*
X134313680Y-100291800D03*
X134313680Y-99791800D03*
X134313680Y-99291800D03*
D32*
X134938680Y-98666800D03*
X135438680Y-98666800D03*
X135938680Y-98666800D03*
X136438680Y-98666800D03*
X136938680Y-98666800D03*
X137438680Y-98666800D03*
D33*
X182653200Y-107221000D03*
X182018200Y-107221000D03*
X181357800Y-107221000D03*
X180722800Y-107221000D03*
X180722800Y-111285000D03*
X181357800Y-111285000D03*
X182018200Y-111285000D03*
X182653200Y-111285000D03*
D34*
X150933360Y-101394240D03*
X154683360Y-101394240D03*
D35*
X143400000Y-121350000D03*
X143400000Y-119450000D03*
X141800000Y-115850000D03*
X141800000Y-113950000D03*
X133000000Y-119350000D03*
X133000000Y-117450000D03*
D15*
X123850000Y-116200000D03*
X121950000Y-116200000D03*
D35*
X112200000Y-107650000D03*
X112200000Y-105750000D03*
X148952480Y-102283280D03*
X148952480Y-100383280D03*
X154703040Y-98930480D03*
X154703040Y-97030480D03*
X150943840Y-98889840D03*
X150943840Y-96989840D03*
D15*
X159400000Y-113700000D03*
X161300000Y-113700000D03*
X133313360Y-96442240D03*
X135213360Y-96442240D03*
D35*
X132800000Y-100900000D03*
X132800000Y-99000000D03*
X167600000Y-114950000D03*
X167600000Y-116850000D03*
X165000000Y-114950000D03*
X165000000Y-116850000D03*
D36*
X180200000Y-99400000D03*
X180200000Y-97200000D03*
X131600000Y-120100000D03*
X131600000Y-122300000D03*
X141200000Y-121500000D03*
X141200000Y-119300000D03*
D37*
X129400000Y-118400000D03*
X127200000Y-118400000D03*
X123900000Y-118600000D03*
X121700000Y-118600000D03*
X121600000Y-120900000D03*
X123800000Y-120900000D03*
X159900000Y-120300000D03*
X157700000Y-120300000D03*
D36*
X140400000Y-100193640D03*
X140400000Y-102393640D03*
X140400000Y-96100000D03*
X140400000Y-98300000D03*
X143200000Y-100100000D03*
X143200000Y-102300000D03*
X143200000Y-96100000D03*
X143200000Y-98300000D03*
X170200000Y-117000000D03*
X170200000Y-114800000D03*
D37*
X180300000Y-101700000D03*
X182500000Y-101700000D03*
D36*
X169000000Y-122000000D03*
X169000000Y-119800000D03*
D38*
X157800000Y-101800000D03*
D39*
X160340000Y-101800000D03*
D38*
X158100000Y-98200000D03*
D39*
X158100000Y-95660000D03*
D38*
X136200000Y-114900000D03*
D39*
X138740000Y-114900000D03*
D40*
X111300000Y-99700000D03*
M02*
