G04 #@! TF.FileFunction,Legend,Bot*
%FSLAX46Y46*%
G04 Gerber Fmt 4.6, Leading zero omitted, Abs format (unit mm)*
G04 Created by KiCad (PCBNEW 4.0.7) date 01/02/18 22:23:31*
%MOMM*%
%LPD*%
G01*
G04 APERTURE LIST*
%ADD10C,0.100000*%
%ADD11C,0.300000*%
G04 APERTURE END LIST*
D10*
D11*
X153285715Y-97154762D02*
X154238096Y-97154762D01*
X154238096Y-95154762D01*
X152333333Y-97154762D02*
X152523809Y-97059524D01*
X152619048Y-96964286D01*
X152714286Y-96773810D01*
X152714286Y-96202381D01*
X152619048Y-96011905D01*
X152523809Y-95916667D01*
X152333333Y-95821429D01*
X152047619Y-95821429D01*
X151857143Y-95916667D01*
X151761905Y-96011905D01*
X151666667Y-96202381D01*
X151666667Y-96773810D01*
X151761905Y-96964286D01*
X151857143Y-97059524D01*
X152047619Y-97154762D01*
X152333333Y-97154762D01*
X149666666Y-97154762D02*
X150333333Y-96202381D01*
X150809524Y-97154762D02*
X150809524Y-95154762D01*
X150047619Y-95154762D01*
X149857143Y-95250000D01*
X149761904Y-95345238D01*
X149666666Y-95535714D01*
X149666666Y-95821429D01*
X149761904Y-96011905D01*
X149857143Y-96107143D01*
X150047619Y-96202381D01*
X150809524Y-96202381D01*
X148904762Y-96583333D02*
X147952381Y-96583333D01*
X149095238Y-97154762D02*
X148428571Y-95154762D01*
X147761904Y-97154762D01*
X144523808Y-95250000D02*
X144714285Y-95154762D01*
X144999999Y-95154762D01*
X145285713Y-95250000D01*
X145476189Y-95440476D01*
X145571428Y-95630952D01*
X145666666Y-96011905D01*
X145666666Y-96297619D01*
X145571428Y-96678571D01*
X145476189Y-96869048D01*
X145285713Y-97059524D01*
X144999999Y-97154762D01*
X144809523Y-97154762D01*
X144523808Y-97059524D01*
X144428570Y-96964286D01*
X144428570Y-96297619D01*
X144809523Y-96297619D01*
X142809523Y-97059524D02*
X142999999Y-97154762D01*
X143380951Y-97154762D01*
X143571428Y-97059524D01*
X143666666Y-96869048D01*
X143666666Y-96107143D01*
X143571428Y-95916667D01*
X143380951Y-95821429D01*
X142999999Y-95821429D01*
X142809523Y-95916667D01*
X142714285Y-96107143D01*
X142714285Y-96297619D01*
X143666666Y-96488095D01*
X140999999Y-97154762D02*
X140999999Y-96107143D01*
X141095237Y-95916667D01*
X141285713Y-95821429D01*
X141666665Y-95821429D01*
X141857142Y-95916667D01*
X140999999Y-97059524D02*
X141190475Y-97154762D01*
X141666665Y-97154762D01*
X141857142Y-97059524D01*
X141952380Y-96869048D01*
X141952380Y-96678571D01*
X141857142Y-96488095D01*
X141666665Y-96392857D01*
X141190475Y-96392857D01*
X140999999Y-96297619D01*
X140047618Y-97154762D02*
X140047618Y-95821429D01*
X140047618Y-96202381D02*
X139952379Y-96011905D01*
X139857141Y-95916667D01*
X139666665Y-95821429D01*
X139476189Y-95821429D01*
M02*
