M48
;DRILL file {KiCad 4.0.7} date 01/02/18 13:18:51
;FORMAT={-:-/ absolute / inch / decimal}
FMAT,2
INCH,TZ
T1C0.012
T2C0.016
T3C0.020
T4C0.039
T5C0.041
%
G90
G05
M72
T1
X4.3504Y-4.2677
X5.689Y-3.7835
X6.4567Y-3.7008
X6.4961Y-3.7008
X6.5354Y-3.7008
X6.5748Y-3.7008
X6.6142Y-3.7008
X6.6535Y-3.7008
X6.6929Y-3.7008
X6.7323Y-3.7008
X6.7717Y-3.7008
X6.811Y-3.7008
X6.8504Y-3.7008
X6.8898Y-3.7008
X6.9094Y-3.75
X6.9094Y-3.7795
X6.9094Y-3.8091
X6.9094Y-3.8386
X6.9094Y-3.8681
X6.9094Y-3.9075
X6.9094Y-3.9469
X6.9094Y-3.9862
X6.9291Y-3.7008
X6.9685Y-3.7008
X7.0079Y-3.7008
X7.0472Y-3.7008
X7.0866Y-3.7008
X7.126Y-3.7008
X7.1654Y-3.7008
X7.185Y-3.937
X7.2047Y-3.7008
X7.2146Y-3.8287
X7.2146Y-3.937
X7.2441Y-3.7008
X7.2441Y-3.937
X7.2539Y-3.8287
T2
X4.6378Y-4.7717
X4.6732Y-4.2441
X4.6811Y-4.7677
X4.7165Y-4.6811
X5.1496Y-4.6496
X5.1654Y-4.563
X5.189Y-4.2677
X5.2205Y-4.3465
X5.2205Y-4.437
X5.2559Y-4.0394
X5.2598Y-4.7953
X5.2795Y-4.5079
X5.2835Y-4.6614
X5.2835Y-4.752
X5.4488Y-4.0591
X5.4606Y-3.811
X5.4882Y-4.122
X5.5079Y-4.6693
X5.5157Y-4.8346
X5.5748Y-3.9724
X5.6102Y-4.1417
X5.6339Y-4.0984
X5.6654Y-4.5236
X5.7008Y-4.5236
X5.7126Y-4.7559
X5.7323Y-4.4685
X5.7402Y-4.252
X5.811Y-4.1496
X5.878Y-4.5315
X5.9173Y-4.4094
X5.9252Y-4.2126
X6.0276Y-4.2047
X6.0315Y-4.3189
X6.0709Y-4.3346
X6.126Y-4.4606
X6.1496Y-4.7913
X6.1929Y-4.437
X6.2047Y-4.2244
X6.2205Y-4.2559
X6.2283Y-4.4291
X6.248Y-4.5354
X6.3425Y-4.5591
X6.4055Y-4.4134
X6.4449Y-4.2244
X6.5512Y-4.4606
X6.5669Y-4.6732
X6.7402Y-4.6772
X7.0787Y-4.4921
X7.1417Y-4.4567
X7.2205Y-4.5276
T3
X4.3819Y-3.9252
T4
X5.3622Y-4.5236
X5.4622Y-4.5236
X6.2126Y-4.0079
X6.2244Y-3.7661
X6.2244Y-3.8661
X6.3126Y-4.0079
T5
X4.5787Y-4.6339
X4.5787Y-4.7323
T0
M30
