G04 #@! TF.FileFunction,Copper,L2,Bot,Signal*
%FSLAX46Y46*%
G04 Gerber Fmt 4.6, Leading zero omitted, Abs format (unit mm)*
G04 Created by KiCad (PCBNEW 4.0.7) date 01/02/18 16:07:37*
%MOMM*%
%LPD*%
G01*
G04 APERTURE LIST*
%ADD10C,0.100000*%
%ADD11C,0.300000*%
%ADD12R,1.750000X1.750000*%
%ADD13C,1.750000*%
%ADD14R,1.700000X1.700000*%
%ADD15O,1.700000X1.700000*%
%ADD16R,0.850000X0.850000*%
%ADD17C,0.600000*%
%ADD18C,0.400000*%
%ADD19C,0.203200*%
%ADD20C,0.101600*%
%ADD21C,0.152400*%
%ADD22C,0.254000*%
G04 APERTURE END LIST*
D10*
D11*
X140142857Y-95778571D02*
X140142857Y-94278571D01*
X139428571Y-95778571D02*
X139428571Y-94278571D01*
X138928571Y-95350000D01*
X138428571Y-94278571D01*
X138428571Y-95778571D01*
X137714285Y-94278571D02*
X137714285Y-95492857D01*
X137642857Y-95635714D01*
X137571428Y-95707143D01*
X137428571Y-95778571D01*
X137142857Y-95778571D01*
X136999999Y-95707143D01*
X136928571Y-95635714D01*
X136857142Y-95492857D01*
X136857142Y-94278571D01*
D12*
X116300000Y-120200000D03*
D13*
X116300000Y-117700000D03*
D14*
X157800000Y-101800000D03*
D15*
X160340000Y-101800000D03*
D14*
X158100000Y-98200000D03*
D15*
X158100000Y-95660000D03*
D14*
X136200000Y-114900000D03*
D15*
X138740000Y-114900000D03*
D16*
X111300000Y-99700000D03*
D17*
X131200000Y-115900000D03*
X132600000Y-112700000D03*
X145600000Y-113500000D03*
X150300000Y-112000000D03*
D18*
X182500000Y-100000000D03*
X184000000Y-100000000D03*
X183250000Y-100000000D03*
X184250000Y-97250000D03*
X183250000Y-97250000D03*
X175500000Y-101250000D03*
X175500000Y-100250000D03*
X175500000Y-99250000D03*
X175500000Y-98250000D03*
X175500000Y-97500000D03*
X175500000Y-96750000D03*
X175500000Y-96000000D03*
X175500000Y-95250000D03*
X184000000Y-94000000D03*
X183000000Y-94000000D03*
X182000000Y-94000000D03*
X181000000Y-94000000D03*
X180000000Y-94000000D03*
X179000000Y-94000000D03*
X178000000Y-94000000D03*
X177000000Y-94000000D03*
X176000000Y-94000000D03*
X175000000Y-94000000D03*
X174000000Y-94000000D03*
X173000000Y-94000000D03*
X172000000Y-94000000D03*
X171000000Y-94000000D03*
X170000000Y-94000000D03*
X169000000Y-94000000D03*
X168000000Y-94000000D03*
X167000000Y-94000000D03*
X166000000Y-94000000D03*
X165000000Y-94000000D03*
X164000000Y-94000000D03*
D17*
X183400000Y-115000000D03*
X181400000Y-113200000D03*
X166800000Y-118700000D03*
X171200000Y-118800000D03*
X139900000Y-118600000D03*
X145100000Y-120800000D03*
X134200000Y-120700000D03*
X134200000Y-118400000D03*
X153100000Y-106800000D03*
X154200000Y-110100000D03*
X140100000Y-122800000D03*
X117800000Y-121200000D03*
X133600000Y-121800000D03*
X130800000Y-118100000D03*
D18*
X110500000Y-108400000D03*
X144500000Y-96100000D03*
D17*
X118700000Y-107800000D03*
X133500000Y-102600000D03*
X134100000Y-114500000D03*
X158700000Y-115200000D03*
X161100000Y-115800000D03*
X153200000Y-109700000D03*
X155600000Y-113300000D03*
X138400000Y-103100000D03*
X141600000Y-100900000D03*
X166400000Y-113300000D03*
X179800000Y-114100000D03*
X143100000Y-104100000D03*
X139400000Y-104700000D03*
X131800000Y-108400000D03*
X132600000Y-110400000D03*
X156200000Y-121700000D03*
X149300000Y-115100000D03*
X138700000Y-96800000D03*
X144800000Y-114900000D03*
X143900000Y-114900000D03*
X142500000Y-105200000D03*
X162700000Y-112100000D03*
X158200000Y-112500000D03*
X158000000Y-108100000D03*
X157600000Y-107300000D03*
X163700000Y-107300000D03*
X157300000Y-112700000D03*
X145800000Y-108000000D03*
X150500000Y-107000000D03*
X119800000Y-118900000D03*
X118900000Y-121100000D03*
X147600000Y-105400000D03*
D19*
X131200000Y-114100000D02*
X131200000Y-115900000D01*
X132600000Y-112700000D02*
X131200000Y-114100000D01*
X148800000Y-113500000D02*
X145600000Y-113500000D01*
X150300000Y-112000000D02*
X148800000Y-113500000D01*
D20*
X183250000Y-100000000D02*
X184000000Y-100000000D01*
X183250000Y-97250000D02*
X184250000Y-97250000D01*
X175500000Y-100250000D02*
X175500000Y-101250000D01*
X175500000Y-98250000D02*
X175500000Y-99250000D01*
X175500000Y-96750000D02*
X175500000Y-97500000D01*
X175500000Y-95250000D02*
X175500000Y-96000000D01*
X182000000Y-94000000D02*
X183000000Y-94000000D01*
X180000000Y-94000000D02*
X181000000Y-94000000D01*
X178000000Y-94000000D02*
X179000000Y-94000000D01*
X176000000Y-94000000D02*
X177000000Y-94000000D01*
X174000000Y-94000000D02*
X175000000Y-94000000D01*
X172000000Y-94000000D02*
X173000000Y-94000000D01*
X170000000Y-94000000D02*
X171000000Y-94000000D01*
X168000000Y-94000000D02*
X169000000Y-94000000D01*
X166000000Y-94000000D02*
X167000000Y-94000000D01*
X164000000Y-94000000D02*
X165000000Y-94000000D01*
D21*
X183200000Y-115000000D02*
X183400000Y-115000000D01*
D22*
X181400000Y-113200000D02*
X183200000Y-115000000D01*
X171100000Y-118700000D02*
X166800000Y-118700000D01*
X171200000Y-118800000D02*
X171100000Y-118700000D01*
X139700000Y-118400000D02*
X134200000Y-118400000D01*
X139900000Y-118600000D02*
X139700000Y-118400000D01*
X145100000Y-120800000D02*
X144800000Y-121100000D01*
X144800000Y-121100000D02*
X136900000Y-121100000D01*
X136900000Y-121100000D02*
X134200000Y-118400000D01*
D19*
X135100000Y-119300000D02*
X134200000Y-118400000D01*
D22*
X135100000Y-119800000D02*
X135100000Y-119300000D01*
X134200000Y-120700000D02*
X135100000Y-119800000D01*
D19*
X153200000Y-106800000D02*
X153100000Y-106800000D01*
D22*
X154200000Y-107800000D02*
X153200000Y-106800000D01*
X154200000Y-110100000D02*
X154200000Y-107800000D01*
D19*
X119400000Y-122800000D02*
X140100000Y-122800000D01*
X117800000Y-121200000D02*
X119400000Y-122800000D01*
X133400000Y-121600000D02*
X133600000Y-121800000D01*
D22*
X133400000Y-120700000D02*
X133400000Y-121600000D01*
X130800000Y-118100000D02*
X133400000Y-120700000D01*
X133500000Y-102600000D02*
X123800000Y-102600000D01*
X118700000Y-107700000D02*
X118700000Y-107800000D01*
X123800000Y-102600000D02*
X118700000Y-107700000D01*
X133500000Y-113900000D02*
X133500000Y-102600000D01*
X134100000Y-114500000D02*
X133500000Y-113900000D01*
D19*
X160500000Y-115200000D02*
X158700000Y-115200000D01*
X161100000Y-115800000D02*
X160500000Y-115200000D01*
X153200000Y-109700000D02*
X153200000Y-109700000D01*
D22*
X153200000Y-110900000D02*
X153200000Y-109700000D01*
X155600000Y-113300000D02*
X153200000Y-110900000D01*
D19*
X141600000Y-100900000D02*
X139400000Y-103100000D01*
X139400000Y-103100000D02*
X138400000Y-103100000D01*
X179000000Y-113300000D02*
X166400000Y-113300000D01*
X179800000Y-114100000D02*
X179000000Y-113300000D01*
X140000000Y-104100000D02*
X143100000Y-104100000D01*
X139400000Y-104700000D02*
X140000000Y-104100000D01*
X131800000Y-109600000D02*
X131800000Y-108400000D01*
X132600000Y-110400000D02*
X131800000Y-109600000D01*
X155900000Y-121700000D02*
X156200000Y-121700000D01*
X149300000Y-115100000D02*
X155900000Y-121700000D01*
X143800000Y-96800000D02*
X138700000Y-96800000D01*
X144400000Y-97400000D02*
X143800000Y-96800000D01*
X144400000Y-114500000D02*
X144400000Y-97400000D01*
X144800000Y-114900000D02*
X144400000Y-114500000D01*
X143900000Y-106600000D02*
X143900000Y-114900000D01*
X142500000Y-105200000D02*
X143900000Y-106600000D01*
X158600000Y-112100000D02*
X162700000Y-112100000D01*
D21*
X158200000Y-112500000D02*
X158600000Y-112100000D01*
D19*
X160340000Y-105760000D02*
X160340000Y-101800000D01*
X158000000Y-108100000D02*
X160340000Y-105760000D01*
X157800000Y-107100000D02*
X157800000Y-101800000D01*
X157600000Y-107300000D02*
X157800000Y-107100000D01*
X159800000Y-107300000D02*
X163700000Y-107300000D01*
X157600000Y-109500000D02*
X159800000Y-107300000D01*
X157600000Y-112400000D02*
X157600000Y-109500000D01*
D21*
X157300000Y-112700000D02*
X157600000Y-112400000D01*
D19*
X146224264Y-108000000D02*
X145800000Y-108000000D01*
X149500000Y-108000000D02*
X146224264Y-108000000D01*
X150500000Y-107000000D02*
X149500000Y-108000000D01*
X118800000Y-119900000D02*
X119800000Y-118900000D01*
X118800000Y-121000000D02*
X118800000Y-119900000D01*
X118900000Y-121100000D02*
X118800000Y-121000000D01*
X147600000Y-105400000D02*
X154700000Y-98300000D01*
X154700000Y-98300000D02*
X157900000Y-98300000D01*
D22*
G36*
X184873000Y-101373000D02*
X162627000Y-101373000D01*
X162627000Y-93627000D01*
X184873000Y-93627000D01*
X184873000Y-101373000D01*
X184873000Y-101373000D01*
G37*
X184873000Y-101373000D02*
X162627000Y-101373000D01*
X162627000Y-93627000D01*
X184873000Y-93627000D01*
X184873000Y-101373000D01*
G36*
X161373000Y-100709458D02*
X160908285Y-100398946D01*
X160340000Y-100285907D01*
X159771715Y-100398946D01*
X159289946Y-100720853D01*
X159262150Y-100762452D01*
X159253162Y-100714683D01*
X159114090Y-100498559D01*
X158901890Y-100353569D01*
X158650000Y-100302560D01*
X156950000Y-100302560D01*
X156714683Y-100346838D01*
X156498559Y-100485910D01*
X156353569Y-100698110D01*
X156302560Y-100950000D01*
X156302560Y-102650000D01*
X156346838Y-102885317D01*
X156485910Y-103101441D01*
X156698110Y-103246431D01*
X156950000Y-103297440D01*
X157063400Y-103297440D01*
X157063400Y-106514527D01*
X156807808Y-106769673D01*
X156665162Y-107113201D01*
X156664838Y-107485167D01*
X156806883Y-107828943D01*
X157065010Y-108087521D01*
X157064838Y-108285167D01*
X157206883Y-108628943D01*
X157318018Y-108740272D01*
X157079145Y-108979145D01*
X156919470Y-109218115D01*
X156863400Y-109500000D01*
X156863400Y-111868728D01*
X156771057Y-111906883D01*
X156507808Y-112169673D01*
X156365162Y-112513201D01*
X156364838Y-112885167D01*
X156506883Y-113228943D01*
X156769673Y-113492192D01*
X157113201Y-113634838D01*
X157485167Y-113635162D01*
X157828943Y-113493117D01*
X157924302Y-113397924D01*
X158013201Y-113434838D01*
X158385167Y-113435162D01*
X158506164Y-113385167D01*
X180464838Y-113385167D01*
X180606883Y-113728943D01*
X180869673Y-113992192D01*
X181213201Y-114134838D01*
X181257246Y-114134876D01*
X182575599Y-115453230D01*
X182606883Y-115528943D01*
X182869673Y-115792192D01*
X183213201Y-115934838D01*
X183585167Y-115935162D01*
X183928943Y-115793117D01*
X184192192Y-115530327D01*
X184334838Y-115186799D01*
X184335162Y-114814833D01*
X184193117Y-114471057D01*
X183930327Y-114207808D01*
X183586799Y-114065162D01*
X183342580Y-114064949D01*
X182335125Y-113057495D01*
X182335162Y-113014833D01*
X182193117Y-112671057D01*
X181930327Y-112407808D01*
X181586799Y-112265162D01*
X181214833Y-112264838D01*
X180871057Y-112406883D01*
X180607808Y-112669673D01*
X180465162Y-113013201D01*
X180464838Y-113385167D01*
X158506164Y-113385167D01*
X158728943Y-113293117D01*
X158992192Y-113030327D01*
X159072635Y-112836600D01*
X162114178Y-112836600D01*
X162169673Y-112892192D01*
X162513201Y-113034838D01*
X162885167Y-113035162D01*
X163228943Y-112893117D01*
X163492192Y-112630327D01*
X163634838Y-112286799D01*
X163635162Y-111914833D01*
X163493117Y-111571057D01*
X163230327Y-111307808D01*
X162886799Y-111165162D01*
X162514833Y-111164838D01*
X162171057Y-111306883D01*
X162114441Y-111363400D01*
X158600000Y-111363400D01*
X158336600Y-111415793D01*
X158336600Y-109805110D01*
X160105110Y-108036600D01*
X163114178Y-108036600D01*
X163169673Y-108092192D01*
X163513201Y-108234838D01*
X163885167Y-108235162D01*
X164228943Y-108093117D01*
X164492192Y-107830327D01*
X164634838Y-107486799D01*
X164635162Y-107114833D01*
X164493117Y-106771057D01*
X164230327Y-106507808D01*
X163886799Y-106365162D01*
X163514833Y-106364838D01*
X163171057Y-106506883D01*
X163114441Y-106563400D01*
X160578310Y-106563400D01*
X160860855Y-106280855D01*
X160873998Y-106261185D01*
X161020530Y-106041885D01*
X161076600Y-105760000D01*
X161076600Y-103088590D01*
X161390054Y-102879147D01*
X161558533Y-102627000D01*
X162373000Y-102627000D01*
X162373000Y-102700000D01*
X162383006Y-102749410D01*
X162411447Y-102791035D01*
X162453841Y-102818315D01*
X162500000Y-102827000D01*
X184673000Y-102827000D01*
X184673000Y-123373000D01*
X140849444Y-123373000D01*
X140892192Y-123330327D01*
X141034838Y-122986799D01*
X141035162Y-122614833D01*
X140893117Y-122271057D01*
X140630327Y-122007808D01*
X140286799Y-121865162D01*
X139914833Y-121864838D01*
X139571057Y-122006883D01*
X139514441Y-122063400D01*
X134503030Y-122063400D01*
X134534838Y-121986799D01*
X134535162Y-121614833D01*
X134520463Y-121579259D01*
X134728943Y-121493117D01*
X134992192Y-121230327D01*
X135134838Y-120886799D01*
X135134876Y-120842754D01*
X135350000Y-120627631D01*
X136361185Y-121638816D01*
X136498142Y-121730327D01*
X136608395Y-121803996D01*
X136900000Y-121862000D01*
X144800000Y-121862000D01*
X145091605Y-121803996D01*
X145194740Y-121735083D01*
X145285167Y-121735162D01*
X145628943Y-121593117D01*
X145892192Y-121330327D01*
X146034838Y-120986799D01*
X146035162Y-120614833D01*
X145893117Y-120271057D01*
X145630327Y-120007808D01*
X145286799Y-119865162D01*
X144914833Y-119864838D01*
X144571057Y-120006883D01*
X144307808Y-120269673D01*
X144279436Y-120338000D01*
X137215631Y-120338000D01*
X136039630Y-119162000D01*
X139139882Y-119162000D01*
X139369673Y-119392192D01*
X139713201Y-119534838D01*
X140085167Y-119535162D01*
X140428943Y-119393117D01*
X140692192Y-119130327D01*
X140834838Y-118786799D01*
X140835162Y-118414833D01*
X140693117Y-118071057D01*
X140430327Y-117807808D01*
X140086799Y-117665162D01*
X139835452Y-117664943D01*
X139700000Y-117638000D01*
X134760466Y-117638000D01*
X134730327Y-117607808D01*
X134386799Y-117465162D01*
X134014833Y-117464838D01*
X133671057Y-117606883D01*
X133407808Y-117869673D01*
X133265162Y-118213201D01*
X133264838Y-118585167D01*
X133406883Y-118928943D01*
X133669673Y-119192192D01*
X134013201Y-119334838D01*
X134057246Y-119334876D01*
X134272370Y-119550000D01*
X134057494Y-119764875D01*
X134014833Y-119764838D01*
X133680579Y-119902948D01*
X131735125Y-117957495D01*
X131735162Y-117914833D01*
X131593117Y-117571057D01*
X131330327Y-117307808D01*
X130986799Y-117165162D01*
X130614833Y-117164838D01*
X130271057Y-117306883D01*
X130007808Y-117569673D01*
X129865162Y-117913201D01*
X129864838Y-118285167D01*
X130006883Y-118628943D01*
X130269673Y-118892192D01*
X130613201Y-119034838D01*
X130657246Y-119034876D01*
X132638000Y-121015631D01*
X132638000Y-121600000D01*
X132665055Y-121736014D01*
X132664838Y-121985167D01*
X132697163Y-122063400D01*
X119705110Y-122063400D01*
X119481931Y-121840221D01*
X119692192Y-121630327D01*
X119834838Y-121286799D01*
X119835162Y-120914833D01*
X119693117Y-120571057D01*
X119536600Y-120414267D01*
X119536600Y-120205110D01*
X119906616Y-119835094D01*
X119985167Y-119835162D01*
X120328943Y-119693117D01*
X120592192Y-119430327D01*
X120734838Y-119086799D01*
X120735162Y-118714833D01*
X120593117Y-118371057D01*
X120330327Y-118107808D01*
X119986799Y-117965162D01*
X119614833Y-117964838D01*
X119271057Y-118106883D01*
X119007808Y-118369673D01*
X118865162Y-118713201D01*
X118865092Y-118793198D01*
X118279145Y-119379145D01*
X118119470Y-119618115D01*
X118063400Y-119900000D01*
X118063400Y-120296970D01*
X117986799Y-120265162D01*
X117822440Y-120265019D01*
X117822440Y-119325000D01*
X117778162Y-119089683D01*
X117639090Y-118873559D01*
X117426890Y-118728569D01*
X117410324Y-118725214D01*
X117579370Y-118556463D01*
X117809738Y-118001675D01*
X117810262Y-117400960D01*
X117580862Y-116845771D01*
X117156463Y-116420630D01*
X116601675Y-116190262D01*
X116000960Y-116189738D01*
X115445771Y-116419138D01*
X115020630Y-116843537D01*
X114790262Y-117398325D01*
X114789738Y-117999040D01*
X115019138Y-118554229D01*
X115187717Y-118723103D01*
X114973559Y-118860910D01*
X114828569Y-119073110D01*
X114777560Y-119325000D01*
X114777560Y-121075000D01*
X114821838Y-121310317D01*
X114960910Y-121526441D01*
X115173110Y-121671431D01*
X115425000Y-121722440D01*
X117004196Y-121722440D01*
X117006883Y-121728943D01*
X117269673Y-121992192D01*
X117613201Y-122134838D01*
X117693198Y-122134908D01*
X118879145Y-123320855D01*
X118957185Y-123373000D01*
X109377000Y-123373000D01*
X109377000Y-116085167D01*
X130264838Y-116085167D01*
X130406883Y-116428943D01*
X130669673Y-116692192D01*
X131013201Y-116834838D01*
X131385167Y-116835162D01*
X131728943Y-116693117D01*
X131992192Y-116430327D01*
X132134838Y-116086799D01*
X132135162Y-115714833D01*
X131993117Y-115371057D01*
X131936600Y-115314441D01*
X131936600Y-115185750D01*
X134715000Y-115185750D01*
X134715000Y-115876309D01*
X134811673Y-116109698D01*
X134990301Y-116288327D01*
X135223690Y-116385000D01*
X135914250Y-116385000D01*
X136073000Y-116226250D01*
X136073000Y-115027000D01*
X134873750Y-115027000D01*
X134715000Y-115185750D01*
X131936600Y-115185750D01*
X131936600Y-114405110D01*
X132418019Y-113923691D01*
X134715000Y-113923691D01*
X134715000Y-114614250D01*
X134873750Y-114773000D01*
X136073000Y-114773000D01*
X136073000Y-113573750D01*
X136327000Y-113573750D01*
X136327000Y-114773000D01*
X136347000Y-114773000D01*
X136347000Y-115027000D01*
X136327000Y-115027000D01*
X136327000Y-116226250D01*
X136485750Y-116385000D01*
X137176310Y-116385000D01*
X137409699Y-116288327D01*
X137588327Y-116109698D01*
X137660597Y-115935223D01*
X137689946Y-115979147D01*
X138171715Y-116301054D01*
X138740000Y-116414093D01*
X139308285Y-116301054D01*
X139790054Y-115979147D01*
X140111961Y-115497378D01*
X140225000Y-114929093D01*
X140225000Y-114870907D01*
X140111961Y-114302622D01*
X139790054Y-113820853D01*
X139308285Y-113498946D01*
X138740000Y-113385907D01*
X138171715Y-113498946D01*
X137689946Y-113820853D01*
X137660597Y-113864777D01*
X137588327Y-113690302D01*
X137409699Y-113511673D01*
X137176310Y-113415000D01*
X136485750Y-113415000D01*
X136327000Y-113573750D01*
X136073000Y-113573750D01*
X135914250Y-113415000D01*
X135223690Y-113415000D01*
X134990301Y-113511673D01*
X134811673Y-113690302D01*
X134715000Y-113923691D01*
X132418019Y-113923691D01*
X132706616Y-113635094D01*
X132785167Y-113635162D01*
X133128943Y-113493117D01*
X133392192Y-113230327D01*
X133534838Y-112886799D01*
X133535162Y-112514833D01*
X133393117Y-112171057D01*
X133130327Y-111907808D01*
X132786799Y-111765162D01*
X132414833Y-111764838D01*
X132071057Y-111906883D01*
X131807808Y-112169673D01*
X131665162Y-112513201D01*
X131665092Y-112593198D01*
X130679145Y-113579145D01*
X130519470Y-113818115D01*
X130463400Y-114100000D01*
X130463400Y-115314178D01*
X130407808Y-115369673D01*
X130265162Y-115713201D01*
X130264838Y-116085167D01*
X109377000Y-116085167D01*
X109377000Y-108585167D01*
X130864838Y-108585167D01*
X131006883Y-108928943D01*
X131063400Y-108985559D01*
X131063400Y-109600000D01*
X131119470Y-109881885D01*
X131279145Y-110120855D01*
X131664906Y-110506616D01*
X131664838Y-110585167D01*
X131806883Y-110928943D01*
X132069673Y-111192192D01*
X132413201Y-111334838D01*
X132785167Y-111335162D01*
X133128943Y-111193117D01*
X133392192Y-110930327D01*
X133534838Y-110586799D01*
X133535162Y-110214833D01*
X133393117Y-109871057D01*
X133130327Y-109607808D01*
X132786799Y-109465162D01*
X132706802Y-109465092D01*
X132536600Y-109294890D01*
X132536600Y-108985822D01*
X132592192Y-108930327D01*
X132734838Y-108586799D01*
X132735162Y-108214833D01*
X132593117Y-107871057D01*
X132330327Y-107607808D01*
X131986799Y-107465162D01*
X131614833Y-107464838D01*
X131271057Y-107606883D01*
X131007808Y-107869673D01*
X130865162Y-108213201D01*
X130864838Y-108585167D01*
X109377000Y-108585167D01*
X109377000Y-99275000D01*
X110227560Y-99275000D01*
X110227560Y-100125000D01*
X110271838Y-100360317D01*
X110410910Y-100576441D01*
X110623110Y-100721431D01*
X110875000Y-100772440D01*
X111725000Y-100772440D01*
X111960317Y-100728162D01*
X112176441Y-100589090D01*
X112321431Y-100376890D01*
X112372440Y-100125000D01*
X112372440Y-99275000D01*
X112328162Y-99039683D01*
X112189090Y-98823559D01*
X111976890Y-98678569D01*
X111725000Y-98627560D01*
X110875000Y-98627560D01*
X110639683Y-98671838D01*
X110423559Y-98810910D01*
X110278569Y-99023110D01*
X110227560Y-99275000D01*
X109377000Y-99275000D01*
X109377000Y-96985167D01*
X137764838Y-96985167D01*
X137906883Y-97328943D01*
X138169673Y-97592192D01*
X138513201Y-97734838D01*
X138885167Y-97735162D01*
X139228943Y-97593117D01*
X139285559Y-97536600D01*
X143494890Y-97536600D01*
X143663400Y-97705110D01*
X143663400Y-103340939D01*
X143630327Y-103307808D01*
X143286799Y-103165162D01*
X142914833Y-103164838D01*
X142571057Y-103306883D01*
X142514441Y-103363400D01*
X140000000Y-103363400D01*
X139718115Y-103419470D01*
X139479145Y-103579145D01*
X139293384Y-103764906D01*
X139214833Y-103764838D01*
X138871057Y-103906883D01*
X138607808Y-104169673D01*
X138465162Y-104513201D01*
X138464838Y-104885167D01*
X138606883Y-105228943D01*
X138869673Y-105492192D01*
X139213201Y-105634838D01*
X139585167Y-105635162D01*
X139928943Y-105493117D01*
X140192192Y-105230327D01*
X140334838Y-104886799D01*
X140334882Y-104836600D01*
X141638494Y-104836600D01*
X141565162Y-105013201D01*
X141564838Y-105385167D01*
X141706883Y-105728943D01*
X141969673Y-105992192D01*
X142313201Y-106134838D01*
X142393198Y-106134908D01*
X143163400Y-106905110D01*
X143163400Y-114314178D01*
X143107808Y-114369673D01*
X142965162Y-114713201D01*
X142964838Y-115085167D01*
X143106883Y-115428943D01*
X143369673Y-115692192D01*
X143713201Y-115834838D01*
X144085167Y-115835162D01*
X144350228Y-115725641D01*
X144613201Y-115834838D01*
X144985167Y-115835162D01*
X145328943Y-115693117D01*
X145592192Y-115430327D01*
X145734838Y-115086799D01*
X145735162Y-114714833D01*
X145619545Y-114435018D01*
X145785167Y-114435162D01*
X146128943Y-114293117D01*
X146185559Y-114236600D01*
X148800000Y-114236600D01*
X149072186Y-114182459D01*
X148771057Y-114306883D01*
X148507808Y-114569673D01*
X148365162Y-114913201D01*
X148364838Y-115285167D01*
X148506883Y-115628943D01*
X148769673Y-115892192D01*
X149113201Y-116034838D01*
X149193198Y-116034908D01*
X155379145Y-122220855D01*
X155438199Y-122260314D01*
X155669673Y-122492192D01*
X156013201Y-122634838D01*
X156385167Y-122635162D01*
X156728943Y-122493117D01*
X156992192Y-122230327D01*
X157134838Y-121886799D01*
X157135162Y-121514833D01*
X156993117Y-121171057D01*
X156730327Y-120907808D01*
X156386799Y-120765162D01*
X156014833Y-120764838D01*
X156008970Y-120767260D01*
X154126877Y-118885167D01*
X165864838Y-118885167D01*
X166006883Y-119228943D01*
X166269673Y-119492192D01*
X166613201Y-119634838D01*
X166985167Y-119635162D01*
X167328943Y-119493117D01*
X167360114Y-119462000D01*
X170539708Y-119462000D01*
X170669673Y-119592192D01*
X171013201Y-119734838D01*
X171385167Y-119735162D01*
X171728943Y-119593117D01*
X171992192Y-119330327D01*
X172134838Y-118986799D01*
X172135162Y-118614833D01*
X171993117Y-118271057D01*
X171730327Y-118007808D01*
X171386799Y-117865162D01*
X171014833Y-117864838D01*
X170837767Y-117938000D01*
X167360466Y-117938000D01*
X167330327Y-117907808D01*
X166986799Y-117765162D01*
X166614833Y-117764838D01*
X166271057Y-117906883D01*
X166007808Y-118169673D01*
X165865162Y-118513201D01*
X165864838Y-118885167D01*
X154126877Y-118885167D01*
X150235094Y-114993384D01*
X150235162Y-114914833D01*
X150093117Y-114571057D01*
X149830327Y-114307808D01*
X149486799Y-114165162D01*
X149114833Y-114164838D01*
X149090035Y-114175084D01*
X149320855Y-114020855D01*
X150406616Y-112935094D01*
X150485167Y-112935162D01*
X150828943Y-112793117D01*
X151092192Y-112530327D01*
X151234838Y-112186799D01*
X151235162Y-111814833D01*
X151093117Y-111471057D01*
X150830327Y-111207808D01*
X150486799Y-111065162D01*
X150114833Y-111064838D01*
X149771057Y-111206883D01*
X149507808Y-111469673D01*
X149365162Y-111813201D01*
X149365092Y-111893198D01*
X148494890Y-112763400D01*
X146185822Y-112763400D01*
X146130327Y-112707808D01*
X145786799Y-112565162D01*
X145414833Y-112564838D01*
X145136600Y-112679801D01*
X145136600Y-108658887D01*
X145269673Y-108792192D01*
X145613201Y-108934838D01*
X145985167Y-108935162D01*
X146328943Y-108793117D01*
X146385559Y-108736600D01*
X149500000Y-108736600D01*
X149781885Y-108680530D01*
X150020855Y-108520855D01*
X150606616Y-107935094D01*
X150685167Y-107935162D01*
X151028943Y-107793117D01*
X151292192Y-107530327D01*
X151434838Y-107186799D01*
X151435013Y-106985167D01*
X152164838Y-106985167D01*
X152306883Y-107328943D01*
X152569673Y-107592192D01*
X152913201Y-107734838D01*
X153057333Y-107734964D01*
X153438000Y-108115631D01*
X153438000Y-109539534D01*
X153407808Y-109569673D01*
X153265162Y-109913201D01*
X153264838Y-110285167D01*
X153406883Y-110628943D01*
X153669673Y-110892192D01*
X154013201Y-111034838D01*
X154385167Y-111035162D01*
X154728943Y-110893117D01*
X154992192Y-110630327D01*
X155134838Y-110286799D01*
X155135162Y-109914833D01*
X154993117Y-109571057D01*
X154962000Y-109539886D01*
X154962000Y-107800000D01*
X154949103Y-107735162D01*
X154903997Y-107508396D01*
X154738816Y-107261185D01*
X153994814Y-106517184D01*
X153893117Y-106271057D01*
X153630327Y-106007808D01*
X153286799Y-105865162D01*
X152914833Y-105864838D01*
X152571057Y-106006883D01*
X152307808Y-106269673D01*
X152165162Y-106613201D01*
X152164838Y-106985167D01*
X151435013Y-106985167D01*
X151435162Y-106814833D01*
X151293117Y-106471057D01*
X151030327Y-106207808D01*
X150686799Y-106065162D01*
X150314833Y-106064838D01*
X149971057Y-106206883D01*
X149707808Y-106469673D01*
X149565162Y-106813201D01*
X149565092Y-106893198D01*
X149194890Y-107263400D01*
X146385822Y-107263400D01*
X146330327Y-107207808D01*
X145986799Y-107065162D01*
X145614833Y-107064838D01*
X145271057Y-107206883D01*
X145136600Y-107341106D01*
X145136600Y-105585167D01*
X146664838Y-105585167D01*
X146806883Y-105928943D01*
X147069673Y-106192192D01*
X147413201Y-106334838D01*
X147785167Y-106335162D01*
X148128943Y-106193117D01*
X148392192Y-105930327D01*
X148534838Y-105586799D01*
X148534908Y-105506802D01*
X155005110Y-99036600D01*
X156602560Y-99036600D01*
X156602560Y-99050000D01*
X156646838Y-99285317D01*
X156785910Y-99501441D01*
X156998110Y-99646431D01*
X157250000Y-99697440D01*
X158950000Y-99697440D01*
X159185317Y-99653162D01*
X159401441Y-99514090D01*
X159546431Y-99301890D01*
X159597440Y-99050000D01*
X159597440Y-97350000D01*
X159553162Y-97114683D01*
X159414090Y-96898559D01*
X159201890Y-96753569D01*
X159134459Y-96739914D01*
X159179147Y-96710054D01*
X159501054Y-96228285D01*
X159614093Y-95660000D01*
X159501054Y-95091715D01*
X159179147Y-94609946D01*
X158697378Y-94288039D01*
X158129093Y-94175000D01*
X158070907Y-94175000D01*
X157502622Y-94288039D01*
X157020853Y-94609946D01*
X156698946Y-95091715D01*
X156585907Y-95660000D01*
X156698946Y-96228285D01*
X157020853Y-96710054D01*
X157062452Y-96737850D01*
X157014683Y-96746838D01*
X156798559Y-96885910D01*
X156653569Y-97098110D01*
X156602560Y-97350000D01*
X156602560Y-97563400D01*
X154700000Y-97563400D01*
X154418115Y-97619470D01*
X154179145Y-97779145D01*
X147493384Y-104464906D01*
X147414833Y-104464838D01*
X147071057Y-104606883D01*
X146807808Y-104869673D01*
X146665162Y-105213201D01*
X146664838Y-105585167D01*
X145136600Y-105585167D01*
X145136600Y-97400000D01*
X145080530Y-97118115D01*
X144920855Y-96879145D01*
X144320855Y-96279145D01*
X144081885Y-96119470D01*
X143800000Y-96063400D01*
X139285822Y-96063400D01*
X139230327Y-96007808D01*
X138886799Y-95865162D01*
X138514833Y-95864838D01*
X138171057Y-96006883D01*
X137907808Y-96269673D01*
X137765162Y-96613201D01*
X137764838Y-96985167D01*
X109377000Y-96985167D01*
X109377000Y-93627000D01*
X161373000Y-93627000D01*
X161373000Y-100709458D01*
X161373000Y-100709458D01*
G37*
X161373000Y-100709458D02*
X160908285Y-100398946D01*
X160340000Y-100285907D01*
X159771715Y-100398946D01*
X159289946Y-100720853D01*
X159262150Y-100762452D01*
X159253162Y-100714683D01*
X159114090Y-100498559D01*
X158901890Y-100353569D01*
X158650000Y-100302560D01*
X156950000Y-100302560D01*
X156714683Y-100346838D01*
X156498559Y-100485910D01*
X156353569Y-100698110D01*
X156302560Y-100950000D01*
X156302560Y-102650000D01*
X156346838Y-102885317D01*
X156485910Y-103101441D01*
X156698110Y-103246431D01*
X156950000Y-103297440D01*
X157063400Y-103297440D01*
X157063400Y-106514527D01*
X156807808Y-106769673D01*
X156665162Y-107113201D01*
X156664838Y-107485167D01*
X156806883Y-107828943D01*
X157065010Y-108087521D01*
X157064838Y-108285167D01*
X157206883Y-108628943D01*
X157318018Y-108740272D01*
X157079145Y-108979145D01*
X156919470Y-109218115D01*
X156863400Y-109500000D01*
X156863400Y-111868728D01*
X156771057Y-111906883D01*
X156507808Y-112169673D01*
X156365162Y-112513201D01*
X156364838Y-112885167D01*
X156506883Y-113228943D01*
X156769673Y-113492192D01*
X157113201Y-113634838D01*
X157485167Y-113635162D01*
X157828943Y-113493117D01*
X157924302Y-113397924D01*
X158013201Y-113434838D01*
X158385167Y-113435162D01*
X158506164Y-113385167D01*
X180464838Y-113385167D01*
X180606883Y-113728943D01*
X180869673Y-113992192D01*
X181213201Y-114134838D01*
X181257246Y-114134876D01*
X182575599Y-115453230D01*
X182606883Y-115528943D01*
X182869673Y-115792192D01*
X183213201Y-115934838D01*
X183585167Y-115935162D01*
X183928943Y-115793117D01*
X184192192Y-115530327D01*
X184334838Y-115186799D01*
X184335162Y-114814833D01*
X184193117Y-114471057D01*
X183930327Y-114207808D01*
X183586799Y-114065162D01*
X183342580Y-114064949D01*
X182335125Y-113057495D01*
X182335162Y-113014833D01*
X182193117Y-112671057D01*
X181930327Y-112407808D01*
X181586799Y-112265162D01*
X181214833Y-112264838D01*
X180871057Y-112406883D01*
X180607808Y-112669673D01*
X180465162Y-113013201D01*
X180464838Y-113385167D01*
X158506164Y-113385167D01*
X158728943Y-113293117D01*
X158992192Y-113030327D01*
X159072635Y-112836600D01*
X162114178Y-112836600D01*
X162169673Y-112892192D01*
X162513201Y-113034838D01*
X162885167Y-113035162D01*
X163228943Y-112893117D01*
X163492192Y-112630327D01*
X163634838Y-112286799D01*
X163635162Y-111914833D01*
X163493117Y-111571057D01*
X163230327Y-111307808D01*
X162886799Y-111165162D01*
X162514833Y-111164838D01*
X162171057Y-111306883D01*
X162114441Y-111363400D01*
X158600000Y-111363400D01*
X158336600Y-111415793D01*
X158336600Y-109805110D01*
X160105110Y-108036600D01*
X163114178Y-108036600D01*
X163169673Y-108092192D01*
X163513201Y-108234838D01*
X163885167Y-108235162D01*
X164228943Y-108093117D01*
X164492192Y-107830327D01*
X164634838Y-107486799D01*
X164635162Y-107114833D01*
X164493117Y-106771057D01*
X164230327Y-106507808D01*
X163886799Y-106365162D01*
X163514833Y-106364838D01*
X163171057Y-106506883D01*
X163114441Y-106563400D01*
X160578310Y-106563400D01*
X160860855Y-106280855D01*
X160873998Y-106261185D01*
X161020530Y-106041885D01*
X161076600Y-105760000D01*
X161076600Y-103088590D01*
X161390054Y-102879147D01*
X161558533Y-102627000D01*
X162373000Y-102627000D01*
X162373000Y-102700000D01*
X162383006Y-102749410D01*
X162411447Y-102791035D01*
X162453841Y-102818315D01*
X162500000Y-102827000D01*
X184673000Y-102827000D01*
X184673000Y-123373000D01*
X140849444Y-123373000D01*
X140892192Y-123330327D01*
X141034838Y-122986799D01*
X141035162Y-122614833D01*
X140893117Y-122271057D01*
X140630327Y-122007808D01*
X140286799Y-121865162D01*
X139914833Y-121864838D01*
X139571057Y-122006883D01*
X139514441Y-122063400D01*
X134503030Y-122063400D01*
X134534838Y-121986799D01*
X134535162Y-121614833D01*
X134520463Y-121579259D01*
X134728943Y-121493117D01*
X134992192Y-121230327D01*
X135134838Y-120886799D01*
X135134876Y-120842754D01*
X135350000Y-120627631D01*
X136361185Y-121638816D01*
X136498142Y-121730327D01*
X136608395Y-121803996D01*
X136900000Y-121862000D01*
X144800000Y-121862000D01*
X145091605Y-121803996D01*
X145194740Y-121735083D01*
X145285167Y-121735162D01*
X145628943Y-121593117D01*
X145892192Y-121330327D01*
X146034838Y-120986799D01*
X146035162Y-120614833D01*
X145893117Y-120271057D01*
X145630327Y-120007808D01*
X145286799Y-119865162D01*
X144914833Y-119864838D01*
X144571057Y-120006883D01*
X144307808Y-120269673D01*
X144279436Y-120338000D01*
X137215631Y-120338000D01*
X136039630Y-119162000D01*
X139139882Y-119162000D01*
X139369673Y-119392192D01*
X139713201Y-119534838D01*
X140085167Y-119535162D01*
X140428943Y-119393117D01*
X140692192Y-119130327D01*
X140834838Y-118786799D01*
X140835162Y-118414833D01*
X140693117Y-118071057D01*
X140430327Y-117807808D01*
X140086799Y-117665162D01*
X139835452Y-117664943D01*
X139700000Y-117638000D01*
X134760466Y-117638000D01*
X134730327Y-117607808D01*
X134386799Y-117465162D01*
X134014833Y-117464838D01*
X133671057Y-117606883D01*
X133407808Y-117869673D01*
X133265162Y-118213201D01*
X133264838Y-118585167D01*
X133406883Y-118928943D01*
X133669673Y-119192192D01*
X134013201Y-119334838D01*
X134057246Y-119334876D01*
X134272370Y-119550000D01*
X134057494Y-119764875D01*
X134014833Y-119764838D01*
X133680579Y-119902948D01*
X131735125Y-117957495D01*
X131735162Y-117914833D01*
X131593117Y-117571057D01*
X131330327Y-117307808D01*
X130986799Y-117165162D01*
X130614833Y-117164838D01*
X130271057Y-117306883D01*
X130007808Y-117569673D01*
X129865162Y-117913201D01*
X129864838Y-118285167D01*
X130006883Y-118628943D01*
X130269673Y-118892192D01*
X130613201Y-119034838D01*
X130657246Y-119034876D01*
X132638000Y-121015631D01*
X132638000Y-121600000D01*
X132665055Y-121736014D01*
X132664838Y-121985167D01*
X132697163Y-122063400D01*
X119705110Y-122063400D01*
X119481931Y-121840221D01*
X119692192Y-121630327D01*
X119834838Y-121286799D01*
X119835162Y-120914833D01*
X119693117Y-120571057D01*
X119536600Y-120414267D01*
X119536600Y-120205110D01*
X119906616Y-119835094D01*
X119985167Y-119835162D01*
X120328943Y-119693117D01*
X120592192Y-119430327D01*
X120734838Y-119086799D01*
X120735162Y-118714833D01*
X120593117Y-118371057D01*
X120330327Y-118107808D01*
X119986799Y-117965162D01*
X119614833Y-117964838D01*
X119271057Y-118106883D01*
X119007808Y-118369673D01*
X118865162Y-118713201D01*
X118865092Y-118793198D01*
X118279145Y-119379145D01*
X118119470Y-119618115D01*
X118063400Y-119900000D01*
X118063400Y-120296970D01*
X117986799Y-120265162D01*
X117822440Y-120265019D01*
X117822440Y-119325000D01*
X117778162Y-119089683D01*
X117639090Y-118873559D01*
X117426890Y-118728569D01*
X117410324Y-118725214D01*
X117579370Y-118556463D01*
X117809738Y-118001675D01*
X117810262Y-117400960D01*
X117580862Y-116845771D01*
X117156463Y-116420630D01*
X116601675Y-116190262D01*
X116000960Y-116189738D01*
X115445771Y-116419138D01*
X115020630Y-116843537D01*
X114790262Y-117398325D01*
X114789738Y-117999040D01*
X115019138Y-118554229D01*
X115187717Y-118723103D01*
X114973559Y-118860910D01*
X114828569Y-119073110D01*
X114777560Y-119325000D01*
X114777560Y-121075000D01*
X114821838Y-121310317D01*
X114960910Y-121526441D01*
X115173110Y-121671431D01*
X115425000Y-121722440D01*
X117004196Y-121722440D01*
X117006883Y-121728943D01*
X117269673Y-121992192D01*
X117613201Y-122134838D01*
X117693198Y-122134908D01*
X118879145Y-123320855D01*
X118957185Y-123373000D01*
X109377000Y-123373000D01*
X109377000Y-116085167D01*
X130264838Y-116085167D01*
X130406883Y-116428943D01*
X130669673Y-116692192D01*
X131013201Y-116834838D01*
X131385167Y-116835162D01*
X131728943Y-116693117D01*
X131992192Y-116430327D01*
X132134838Y-116086799D01*
X132135162Y-115714833D01*
X131993117Y-115371057D01*
X131936600Y-115314441D01*
X131936600Y-115185750D01*
X134715000Y-115185750D01*
X134715000Y-115876309D01*
X134811673Y-116109698D01*
X134990301Y-116288327D01*
X135223690Y-116385000D01*
X135914250Y-116385000D01*
X136073000Y-116226250D01*
X136073000Y-115027000D01*
X134873750Y-115027000D01*
X134715000Y-115185750D01*
X131936600Y-115185750D01*
X131936600Y-114405110D01*
X132418019Y-113923691D01*
X134715000Y-113923691D01*
X134715000Y-114614250D01*
X134873750Y-114773000D01*
X136073000Y-114773000D01*
X136073000Y-113573750D01*
X136327000Y-113573750D01*
X136327000Y-114773000D01*
X136347000Y-114773000D01*
X136347000Y-115027000D01*
X136327000Y-115027000D01*
X136327000Y-116226250D01*
X136485750Y-116385000D01*
X137176310Y-116385000D01*
X137409699Y-116288327D01*
X137588327Y-116109698D01*
X137660597Y-115935223D01*
X137689946Y-115979147D01*
X138171715Y-116301054D01*
X138740000Y-116414093D01*
X139308285Y-116301054D01*
X139790054Y-115979147D01*
X140111961Y-115497378D01*
X140225000Y-114929093D01*
X140225000Y-114870907D01*
X140111961Y-114302622D01*
X139790054Y-113820853D01*
X139308285Y-113498946D01*
X138740000Y-113385907D01*
X138171715Y-113498946D01*
X137689946Y-113820853D01*
X137660597Y-113864777D01*
X137588327Y-113690302D01*
X137409699Y-113511673D01*
X137176310Y-113415000D01*
X136485750Y-113415000D01*
X136327000Y-113573750D01*
X136073000Y-113573750D01*
X135914250Y-113415000D01*
X135223690Y-113415000D01*
X134990301Y-113511673D01*
X134811673Y-113690302D01*
X134715000Y-113923691D01*
X132418019Y-113923691D01*
X132706616Y-113635094D01*
X132785167Y-113635162D01*
X133128943Y-113493117D01*
X133392192Y-113230327D01*
X133534838Y-112886799D01*
X133535162Y-112514833D01*
X133393117Y-112171057D01*
X133130327Y-111907808D01*
X132786799Y-111765162D01*
X132414833Y-111764838D01*
X132071057Y-111906883D01*
X131807808Y-112169673D01*
X131665162Y-112513201D01*
X131665092Y-112593198D01*
X130679145Y-113579145D01*
X130519470Y-113818115D01*
X130463400Y-114100000D01*
X130463400Y-115314178D01*
X130407808Y-115369673D01*
X130265162Y-115713201D01*
X130264838Y-116085167D01*
X109377000Y-116085167D01*
X109377000Y-108585167D01*
X130864838Y-108585167D01*
X131006883Y-108928943D01*
X131063400Y-108985559D01*
X131063400Y-109600000D01*
X131119470Y-109881885D01*
X131279145Y-110120855D01*
X131664906Y-110506616D01*
X131664838Y-110585167D01*
X131806883Y-110928943D01*
X132069673Y-111192192D01*
X132413201Y-111334838D01*
X132785167Y-111335162D01*
X133128943Y-111193117D01*
X133392192Y-110930327D01*
X133534838Y-110586799D01*
X133535162Y-110214833D01*
X133393117Y-109871057D01*
X133130327Y-109607808D01*
X132786799Y-109465162D01*
X132706802Y-109465092D01*
X132536600Y-109294890D01*
X132536600Y-108985822D01*
X132592192Y-108930327D01*
X132734838Y-108586799D01*
X132735162Y-108214833D01*
X132593117Y-107871057D01*
X132330327Y-107607808D01*
X131986799Y-107465162D01*
X131614833Y-107464838D01*
X131271057Y-107606883D01*
X131007808Y-107869673D01*
X130865162Y-108213201D01*
X130864838Y-108585167D01*
X109377000Y-108585167D01*
X109377000Y-99275000D01*
X110227560Y-99275000D01*
X110227560Y-100125000D01*
X110271838Y-100360317D01*
X110410910Y-100576441D01*
X110623110Y-100721431D01*
X110875000Y-100772440D01*
X111725000Y-100772440D01*
X111960317Y-100728162D01*
X112176441Y-100589090D01*
X112321431Y-100376890D01*
X112372440Y-100125000D01*
X112372440Y-99275000D01*
X112328162Y-99039683D01*
X112189090Y-98823559D01*
X111976890Y-98678569D01*
X111725000Y-98627560D01*
X110875000Y-98627560D01*
X110639683Y-98671838D01*
X110423559Y-98810910D01*
X110278569Y-99023110D01*
X110227560Y-99275000D01*
X109377000Y-99275000D01*
X109377000Y-96985167D01*
X137764838Y-96985167D01*
X137906883Y-97328943D01*
X138169673Y-97592192D01*
X138513201Y-97734838D01*
X138885167Y-97735162D01*
X139228943Y-97593117D01*
X139285559Y-97536600D01*
X143494890Y-97536600D01*
X143663400Y-97705110D01*
X143663400Y-103340939D01*
X143630327Y-103307808D01*
X143286799Y-103165162D01*
X142914833Y-103164838D01*
X142571057Y-103306883D01*
X142514441Y-103363400D01*
X140000000Y-103363400D01*
X139718115Y-103419470D01*
X139479145Y-103579145D01*
X139293384Y-103764906D01*
X139214833Y-103764838D01*
X138871057Y-103906883D01*
X138607808Y-104169673D01*
X138465162Y-104513201D01*
X138464838Y-104885167D01*
X138606883Y-105228943D01*
X138869673Y-105492192D01*
X139213201Y-105634838D01*
X139585167Y-105635162D01*
X139928943Y-105493117D01*
X140192192Y-105230327D01*
X140334838Y-104886799D01*
X140334882Y-104836600D01*
X141638494Y-104836600D01*
X141565162Y-105013201D01*
X141564838Y-105385167D01*
X141706883Y-105728943D01*
X141969673Y-105992192D01*
X142313201Y-106134838D01*
X142393198Y-106134908D01*
X143163400Y-106905110D01*
X143163400Y-114314178D01*
X143107808Y-114369673D01*
X142965162Y-114713201D01*
X142964838Y-115085167D01*
X143106883Y-115428943D01*
X143369673Y-115692192D01*
X143713201Y-115834838D01*
X144085167Y-115835162D01*
X144350228Y-115725641D01*
X144613201Y-115834838D01*
X144985167Y-115835162D01*
X145328943Y-115693117D01*
X145592192Y-115430327D01*
X145734838Y-115086799D01*
X145735162Y-114714833D01*
X145619545Y-114435018D01*
X145785167Y-114435162D01*
X146128943Y-114293117D01*
X146185559Y-114236600D01*
X148800000Y-114236600D01*
X149072186Y-114182459D01*
X148771057Y-114306883D01*
X148507808Y-114569673D01*
X148365162Y-114913201D01*
X148364838Y-115285167D01*
X148506883Y-115628943D01*
X148769673Y-115892192D01*
X149113201Y-116034838D01*
X149193198Y-116034908D01*
X155379145Y-122220855D01*
X155438199Y-122260314D01*
X155669673Y-122492192D01*
X156013201Y-122634838D01*
X156385167Y-122635162D01*
X156728943Y-122493117D01*
X156992192Y-122230327D01*
X157134838Y-121886799D01*
X157135162Y-121514833D01*
X156993117Y-121171057D01*
X156730327Y-120907808D01*
X156386799Y-120765162D01*
X156014833Y-120764838D01*
X156008970Y-120767260D01*
X154126877Y-118885167D01*
X165864838Y-118885167D01*
X166006883Y-119228943D01*
X166269673Y-119492192D01*
X166613201Y-119634838D01*
X166985167Y-119635162D01*
X167328943Y-119493117D01*
X167360114Y-119462000D01*
X170539708Y-119462000D01*
X170669673Y-119592192D01*
X171013201Y-119734838D01*
X171385167Y-119735162D01*
X171728943Y-119593117D01*
X171992192Y-119330327D01*
X172134838Y-118986799D01*
X172135162Y-118614833D01*
X171993117Y-118271057D01*
X171730327Y-118007808D01*
X171386799Y-117865162D01*
X171014833Y-117864838D01*
X170837767Y-117938000D01*
X167360466Y-117938000D01*
X167330327Y-117907808D01*
X166986799Y-117765162D01*
X166614833Y-117764838D01*
X166271057Y-117906883D01*
X166007808Y-118169673D01*
X165865162Y-118513201D01*
X165864838Y-118885167D01*
X154126877Y-118885167D01*
X150235094Y-114993384D01*
X150235162Y-114914833D01*
X150093117Y-114571057D01*
X149830327Y-114307808D01*
X149486799Y-114165162D01*
X149114833Y-114164838D01*
X149090035Y-114175084D01*
X149320855Y-114020855D01*
X150406616Y-112935094D01*
X150485167Y-112935162D01*
X150828943Y-112793117D01*
X151092192Y-112530327D01*
X151234838Y-112186799D01*
X151235162Y-111814833D01*
X151093117Y-111471057D01*
X150830327Y-111207808D01*
X150486799Y-111065162D01*
X150114833Y-111064838D01*
X149771057Y-111206883D01*
X149507808Y-111469673D01*
X149365162Y-111813201D01*
X149365092Y-111893198D01*
X148494890Y-112763400D01*
X146185822Y-112763400D01*
X146130327Y-112707808D01*
X145786799Y-112565162D01*
X145414833Y-112564838D01*
X145136600Y-112679801D01*
X145136600Y-108658887D01*
X145269673Y-108792192D01*
X145613201Y-108934838D01*
X145985167Y-108935162D01*
X146328943Y-108793117D01*
X146385559Y-108736600D01*
X149500000Y-108736600D01*
X149781885Y-108680530D01*
X150020855Y-108520855D01*
X150606616Y-107935094D01*
X150685167Y-107935162D01*
X151028943Y-107793117D01*
X151292192Y-107530327D01*
X151434838Y-107186799D01*
X151435013Y-106985167D01*
X152164838Y-106985167D01*
X152306883Y-107328943D01*
X152569673Y-107592192D01*
X152913201Y-107734838D01*
X153057333Y-107734964D01*
X153438000Y-108115631D01*
X153438000Y-109539534D01*
X153407808Y-109569673D01*
X153265162Y-109913201D01*
X153264838Y-110285167D01*
X153406883Y-110628943D01*
X153669673Y-110892192D01*
X154013201Y-111034838D01*
X154385167Y-111035162D01*
X154728943Y-110893117D01*
X154992192Y-110630327D01*
X155134838Y-110286799D01*
X155135162Y-109914833D01*
X154993117Y-109571057D01*
X154962000Y-109539886D01*
X154962000Y-107800000D01*
X154949103Y-107735162D01*
X154903997Y-107508396D01*
X154738816Y-107261185D01*
X153994814Y-106517184D01*
X153893117Y-106271057D01*
X153630327Y-106007808D01*
X153286799Y-105865162D01*
X152914833Y-105864838D01*
X152571057Y-106006883D01*
X152307808Y-106269673D01*
X152165162Y-106613201D01*
X152164838Y-106985167D01*
X151435013Y-106985167D01*
X151435162Y-106814833D01*
X151293117Y-106471057D01*
X151030327Y-106207808D01*
X150686799Y-106065162D01*
X150314833Y-106064838D01*
X149971057Y-106206883D01*
X149707808Y-106469673D01*
X149565162Y-106813201D01*
X149565092Y-106893198D01*
X149194890Y-107263400D01*
X146385822Y-107263400D01*
X146330327Y-107207808D01*
X145986799Y-107065162D01*
X145614833Y-107064838D01*
X145271057Y-107206883D01*
X145136600Y-107341106D01*
X145136600Y-105585167D01*
X146664838Y-105585167D01*
X146806883Y-105928943D01*
X147069673Y-106192192D01*
X147413201Y-106334838D01*
X147785167Y-106335162D01*
X148128943Y-106193117D01*
X148392192Y-105930327D01*
X148534838Y-105586799D01*
X148534908Y-105506802D01*
X155005110Y-99036600D01*
X156602560Y-99036600D01*
X156602560Y-99050000D01*
X156646838Y-99285317D01*
X156785910Y-99501441D01*
X156998110Y-99646431D01*
X157250000Y-99697440D01*
X158950000Y-99697440D01*
X159185317Y-99653162D01*
X159401441Y-99514090D01*
X159546431Y-99301890D01*
X159597440Y-99050000D01*
X159597440Y-97350000D01*
X159553162Y-97114683D01*
X159414090Y-96898559D01*
X159201890Y-96753569D01*
X159134459Y-96739914D01*
X159179147Y-96710054D01*
X159501054Y-96228285D01*
X159614093Y-95660000D01*
X159501054Y-95091715D01*
X159179147Y-94609946D01*
X158697378Y-94288039D01*
X158129093Y-94175000D01*
X158070907Y-94175000D01*
X157502622Y-94288039D01*
X157020853Y-94609946D01*
X156698946Y-95091715D01*
X156585907Y-95660000D01*
X156698946Y-96228285D01*
X157020853Y-96710054D01*
X157062452Y-96737850D01*
X157014683Y-96746838D01*
X156798559Y-96885910D01*
X156653569Y-97098110D01*
X156602560Y-97350000D01*
X156602560Y-97563400D01*
X154700000Y-97563400D01*
X154418115Y-97619470D01*
X154179145Y-97779145D01*
X147493384Y-104464906D01*
X147414833Y-104464838D01*
X147071057Y-104606883D01*
X146807808Y-104869673D01*
X146665162Y-105213201D01*
X146664838Y-105585167D01*
X145136600Y-105585167D01*
X145136600Y-97400000D01*
X145080530Y-97118115D01*
X144920855Y-96879145D01*
X144320855Y-96279145D01*
X144081885Y-96119470D01*
X143800000Y-96063400D01*
X139285822Y-96063400D01*
X139230327Y-96007808D01*
X138886799Y-95865162D01*
X138514833Y-95864838D01*
X138171057Y-96006883D01*
X137907808Y-96269673D01*
X137765162Y-96613201D01*
X137764838Y-96985167D01*
X109377000Y-96985167D01*
X109377000Y-93627000D01*
X161373000Y-93627000D01*
X161373000Y-100709458D01*
M02*
